<?xml version="1.0" standalone="no"?>
<!DOCTYPE svg PUBLIC "-//W3C//DTD SVG 20010904//EN"
 "http://www.w3.org/TR/2001/REC-SVG-20010904/DTD/svg10.dtd">
<svg version="1.0" xmlns="http://www.w3.org/2000/svg"
 width="1090.000000pt" height="640.000000pt" viewBox="0 0 1090.000000 640.000000"
 preserveAspectRatio="xMidYMid meet">

<g transform="translate(0.000000,640.000000) scale(0.100000,-0.100000)"
fill="#000000" stroke="none">
<path d="M730 5691 c0 -17 317 -20 2393 -26 1737 -4 2087 -3 2087 8 0 11 -231
15 -1337 20 -1871 10 -3143 9 -3143 -2z"/>
<path d="M707 5173 c6 -977 15 -1443 27 -1443 8 0 10 55 9 192 -1 106 -5 543
-9 971 -5 587 -9 777 -18 777 -9 0 -11 -120 -9 -497z"/>
<path d="M2698 4765 l4 -127 -93 7 c-86 7 -92 6 -80 -9 10 -12 32 -16 92 -16
l79 0 0 -118 0 -117 -62 -17 c-35 -10 -75 -21 -90 -24 -33 -7 -34 -9 -8 -69
18 -41 40 -54 40 -22 0 7 27 24 60 39 l61 27 -3 -152 -3 -152 -68 -1 c-75 -2
-94 -9 -48 -19 40 -9 81 -42 81 -66 0 -39 92 -10 104 33 3 13 6 109 6 213 l0
190 80 53 c44 28 80 57 80 62 0 6 -31 -6 -70 -25 -38 -19 -74 -35 -80 -35 -6
0 -10 38 -10 100 l0 100 80 0 c62 0 80 3 80 14 0 14 -54 66 -69 66 -4 0 -20
-13 -36 -30 -48 -50 -55 -42 -55 65 0 86 2 95 21 106 18 9 19 13 8 24 -8 7
-34 16 -59 20 l-45 7 3 -127z"/>
<path d="M2960 4708 c0 -209 2 -215 71 -229 114 -22 437 -3 470 27 24 21 24
26 -1 54 -15 17 -20 38 -21 79 l-1 56 -18 -68 c-10 -38 -21 -71 -24 -75 -18
-18 -302 -28 -371 -13 -29 6 -30 8 -30 65 l0 59 110 24 c61 14 137 36 171 49
33 13 73 24 87 24 41 0 33 24 -16 50 l-44 23 -39 -31 c-45 -36 -131 -77 -215
-102 l-59 -18 0 79 c0 69 2 80 21 90 28 15 14 25 -43 33 l-48 7 0 -183z"/>
<path d="M5625 4848 l0 -43 -147 2 c-124 1 -146 -1 -141 -13 4 -11 33 -14 149
-14 l144 0 0 -46 0 -45 -220 3 c-144 2 -219 0 -217 -7 2 -6 87 -11 220 -13
l217 -2 0 -51 0 -50 -143 3 c-133 3 -144 2 -139 -14 4 -16 19 -18 143 -18
l139 0 0 -46 0 -46 -169 4 c-132 2 -167 0 -164 -9 4 -10 47 -13 169 -13 l164
0 0 -46 0 -45 -224 3 c-217 3 -224 2 -214 -16 9 -16 18 -18 71 -12 33 3 252 6
486 6 l426 1 -42 39 c-23 22 -47 40 -52 40 -6 0 -20 -13 -33 -30 l-22 -30
-163 0 -163 0 0 45 0 45 195 0 c107 0 195 3 195 8 0 4 -21 22 -46 41 l-45 34
-32 -31 -33 -32 -117 0 -117 0 0 45 0 45 110 0 c66 0 118 -5 129 -12 37 -23
51 -4 51 72 l0 70 90 0 c50 0 90 3 90 8 0 4 -19 22 -42 41 l-41 35 -27 -32
c-15 -18 -36 -32 -48 -32 -18 0 -22 6 -22 35 0 21 6 37 17 43 20 12 12 36 -21
57 -24 16 -27 16 -52 -4 -23 -18 -40 -21 -126 -21 -82 0 -100 3 -105 16 -4 10
1 22 10 29 26 18 20 32 -14 39 -67 13 -74 10 -74 -36z m303 -110 l-3 -43 -112
-3 -113 -3 0 46 0 45 116 0 115 0 -3 -42z m0 -120 l3 -48 -115 0 -116 0 0 50
0 51 113 -3 112 -3 3 -47z"/>
<path d="M4584 4824 l-27 -35 -284 3 c-221 2 -283 0 -283 -9 0 -10 79 -13 360
-13 216 0 360 4 360 9 0 10 -82 81 -93 81 -3 0 -18 -16 -33 -36z"/>
<path d="M4710 4594 l-25 -34 -408 3 c-224 1 -407 0 -407 -3 1 -26 25 -30 235
-32 l220 -3 3 -238 c1 -156 -1 -245 -8 -258 -10 -18 -17 -19 -98 -13 -94 7
-101 -1 -19 -26 42 -12 55 -21 66 -48 8 -17 21 -32 28 -32 27 0 82 29 92 48 7
14 11 118 11 296 l0 276 214 0 c118 0 217 4 220 8 4 7 -57 65 -89 84 -5 3 -21
-9 -35 -28z"/>
<path d="M2966 4162 l1 -247 34 0 c31 0 34 3 37 33 l3 32 159 0 159 0 3 -32
c3 -30 6 -33 38 -33 l35 0 3 205 c2 168 5 206 17 213 24 13 17 30 -20 56 l-36
24 -22 -22 c-22 -20 -34 -21 -176 -21 -132 0 -157 3 -191 20 -22 11 -41 20
-42 20 -2 0 -3 -111 -2 -248z m394 108 l0 -80 -160 0 -160 0 0 80 0 80 160 0
160 0 0 -80z m0 -175 l0 -85 -160 0 -160 0 0 85 0 85 160 0 160 0 0 -85z"/>
<path d="M4051 4332 c-27 -74 -88 -169 -153 -238 -28 -30 -48 -57 -45 -60 18
-18 200 152 266 249 20 29 39 47 51 47 37 0 20 19 -35 39 -31 12 -57 21 -59
21 -2 0 -13 -26 -25 -58z"/>
<path d="M4560 4375 c0 -4 25 -37 55 -73 31 -37 70 -96 86 -132 17 -36 36 -76
43 -90 23 -49 76 -33 76 24 0 60 -81 158 -190 232 -60 41 -70 46 -70 39z"/>
<path d="M5345 4097 l0 -182 31 -3 c27 -3 33 1 42 28 l11 30 248 -2 247 -3 6
-25 c6 -27 44 -40 62 -22 6 6 9 66 9 140 -2 125 -1 131 21 147 l23 16 -35 30
c-40 34 -51 36 -68 9 -12 -19 -23 -20 -262 -20 -231 0 -254 2 -290 20 -22 11
-41 20 -42 20 -2 0 -3 -82 -3 -183z m585 73 l0 -50 -255 0 -255 0 0 50 0 50
255 0 255 0 0 -50z m0 -125 l0 -55 -255 0 -255 0 0 55 0 55 255 0 255 0 0 -55z"/>
<path d="M10236 2236 l7 -1494 -74 -6 c-41 -3 -521 -9 -1068 -13 -836 -7 -995
-10 -999 -22 -4 -12 99 -13 689 -7 382 3 870 9 1084 12 l390 6 -3 1251 c-3
1340 -9 1767 -24 1767 -6 0 -7 -552 -2 -1494z"/>
<path d="M2630 2771 l0 -591 48 0 47 0 -7 108 c-4 59 -21 300 -38 537 -29 418
-29 468 1 438 12 -12 148 -262 316 -581 64 -122 120 -219 123 -215 4 5 27 53
53 108 212 459 325 690 337 690 13 0 15 -75 18 -542 l2 -543 50 0 50 0 0 590
0 590 -57 0 -58 -1 -69 -147 c-37 -81 -116 -250 -174 -375 -91 -197 -108 -228
-126 -225 -22 3 -55 61 -296 518 l-119 225 -50 3 -51 3 0 -590z"/>
<path d="M4252 3336 c9 -21 4 -42 -30 -133 -22 -59 -83 -229 -135 -378 -53
-148 -125 -351 -161 -449 -36 -99 -66 -183 -66 -188 0 -4 22 -8 49 -8 l48 0
27 103 c41 154 66 201 123 237 125 80 274 79 425 -2 83 -44 127 -99 183 -228
l49 -110 48 0 c44 0 49 2 43 19 -3 11 -49 115 -101 233 -52 117 -155 348 -229
513 -73 165 -145 326 -160 358 l-26 57 -50 0 c-48 0 -48 0 -37 -24z m103 -231
c26 -60 97 -219 157 -353 61 -134 107 -246 104 -249 -3 -4 -25 8 -49 25 -141
107 -306 139 -430 84 -26 -11 -49 -17 -52 -12 -5 8 167 619 181 641 12 20 41
-24 89 -136z"/>
<path d="M5080 2770 l0 -590 45 0 45 0 0 300 0 300 25 16 c70 46 175 -44 356
-303 68 -96 152 -206 187 -244 l64 -69 69 0 69 0 -42 38 c-61 55 -175 195
-259 318 -88 130 -178 228 -233 256 -23 12 -68 24 -100 27 -33 3 -61 11 -63
17 -2 5 81 75 184 155 102 79 251 195 331 257 l144 112 -69 0 -68 -1 -160
-150 c-242 -228 -405 -371 -418 -366 -9 3 -13 77 -15 260 l-2 257 -45 0 -45 0
0 -590z"/>
<path d="M6180 2770 l0 -590 413 0 412 0 -3 49 c-4 48 -5 49 -28 41 -73 -28
-395 -69 -562 -71 -152 -2 -142 -23 -142 298 0 250 1 264 20 283 14 14 33 20
68 20 93 0 425 -43 510 -66 20 -6 22 -3 22 40 l0 46 -284 0 c-271 0 -284 1
-310 21 l-26 20 0 223 c0 177 3 226 14 242 13 17 26 19 117 17 171 -3 471 -39
577 -69 20 -6 22 -3 22 40 l0 46 -410 0 -410 0 0 -590z"/>
<path d="M7280 2770 l0 -590 45 0 45 0 2 570 c2 450 6 572 16 582 9 9 60 14
178 16 180 4 281 -7 354 -39 209 -90 229 -428 33 -545 -71 -42 -140 -54 -315
-54 -92 0 -148 -4 -148 -10 0 -6 29 -10 68 -10 102 0 126 -20 317 -266 73 -94
153 -187 176 -208 39 -33 48 -36 104 -36 l60 0 -90 93 c-50 50 -127 139 -170
197 -44 58 -103 129 -133 157 -60 58 -60 59 38 67 181 15 287 96 326 247 20
79 13 162 -19 233 -35 75 -70 111 -145 148 l-67 33 -337 3 -338 3 0 -591z"/>
<path d="M1755 1490 c0 -81 3 -110 13 -110 8 0 12 17 12 50 l0 50 40 0 c22 0
40 5 40 10 0 6 -18 10 -40 10 l-40 0 0 46 0 46 40 -4 c22 -2 40 0 40 4 0 5
-24 8 -52 8 l-53 0 0 -110z"/>
<path d="M2007 1580 c-49 -39 -56 -121 -14 -167 20 -23 84 -49 94 -39 3 3 -6
8 -21 12 -63 15 -94 99 -61 163 16 33 33 41 80 41 90 0 118 -155 35 -197 -14
-7 -19 -13 -10 -13 48 0 95 76 84 136 -14 76 -124 113 -187 64z"/>
<path d="M2315 1490 c0 -81 3 -110 13 -110 9 0 12 28 12 105 0 105 0 105 24
105 29 0 56 -24 56 -50 0 -22 -26 -50 -46 -50 -8 0 -14 -3 -14 -6 0 -14 76
-103 89 -104 15 0 14 0 -37 64 l-23 28 26 24 c51 47 19 104 -60 104 l-40 0 0
-110z"/>
<path d="M2735 1537 c26 -48 35 -76 35 -110 0 -31 4 -47 13 -47 8 0 11 13 9
44 -3 36 3 54 36 110 28 45 36 66 26 66 -8 0 -14 -5 -14 -11 0 -6 -12 -31 -26
-56 l-27 -45 -30 56 c-16 31 -36 56 -44 56 -10 0 -3 -19 22 -63z"/>
<path d="M2991 1569 c-26 -26 -31 -38 -31 -78 0 -58 25 -94 76 -111 19 -7 38
-10 40 -7 3 3 -5 8 -18 12 -36 11 -67 45 -74 82 -14 72 21 123 85 123 32 0 44
-6 65 -31 45 -53 30 -146 -28 -169 -18 -7 -18 -9 -3 -9 10 -1 32 12 48 28 25
25 29 37 29 81 0 44 -4 56 -29 81 -25 24 -38 29 -79 29 -43 0 -55 -5 -81 -31z"/>
<path d="M3310 1507 c5 -101 15 -122 57 -130 42 -8 80 11 92 45 14 39 14 178
1 178 -6 0 -10 -35 -10 -84 0 -98 -5 -114 -35 -126 -61 -23 -88 20 -83 134 2
62 0 76 -12 76 -13 0 -14 -15 -10 -93z"/>
<path d="M3605 1490 c0 -81 3 -110 13 -110 9 0 12 28 12 105 0 103 0 105 23
105 61 0 76 -85 17 -96 l-29 -6 42 -54 c23 -30 48 -54 55 -54 7 0 -2 19 -22
46 l-36 46 25 30 c30 36 31 52 5 78 -14 14 -33 20 -62 20 l-43 0 0 -110z"/>
<path d="M4020 1490 c0 -81 3 -110 13 -110 9 0 12 29 12 110 0 81 -3 110 -12
110 -10 0 -13 -29 -13 -110z"/>
<path d="M4180 1490 l0 -110 50 0 c56 0 104 20 120 49 13 26 13 97 -1 123 -14
27 -69 48 -124 48 l-45 0 0 -110z m131 71 c24 -24 29 -38 29 -76 0 -61 -32
-95 -90 -95 l-40 0 0 100 0 100 36 0 c26 0 43 -8 65 -29z"/>
<path d="M4490 1490 l0 -110 55 0 c30 0 55 3 55 8 0 4 -19 7 -42 7 l-43 0 -3
43 -3 42 40 0 c23 0 41 5 41 10 0 6 -18 10 -41 10 l-40 0 3 43 c3 41 4 42 41
42 20 0 37 3 37 8 0 4 -22 7 -50 7 l-50 0 0 -110z"/>
<path d="M4772 1539 c-15 -35 -34 -80 -42 -99 -7 -19 -18 -41 -23 -47 -7 -9
-5 -13 5 -13 9 0 20 17 27 40 12 39 13 40 57 40 44 0 46 -2 61 -40 9 -22 22
-40 28 -40 8 0 -4 39 -32 108 -25 59 -47 109 -49 111 -2 2 -16 -25 -32 -60z
m44 -14 c19 -46 19 -45 -20 -45 l-34 0 15 40 c9 22 18 40 20 40 2 0 11 -16 19
-35z"/>
<path d="M5015 1490 l0 -110 58 0 c31 0 57 3 57 8 0 4 -21 6 -46 4 l-45 -4 3
106 c2 89 1 106 -12 106 -12 0 -15 -19 -15 -110z"/>
<path d="M5408 1490 l36 -110 28 72 c15 39 31 75 36 80 5 5 19 -26 32 -67 13
-42 27 -78 31 -81 4 -2 22 40 39 93 18 54 37 104 43 111 6 8 5 12 -4 12 -9 0
-23 -31 -38 -80 -13 -44 -27 -80 -31 -80 -4 0 -12 18 -19 40 -6 22 -20 59 -30
82 l-17 42 -29 -82 c-16 -45 -32 -82 -36 -82 -7 0 -49 127 -49 149 0 6 -6 11
-14 11 -11 0 -6 -26 22 -110z"/>
<path d="M5770 1490 l0 -110 58 2 c49 1 51 2 15 5 l-43 4 0 45 c0 44 0 44 35
44 19 0 35 5 35 10 0 6 -16 10 -35 10 -35 0 -35 0 -35 46 l0 46 40 -4 c22 -2
40 0 40 4 0 5 -25 8 -55 8 l-55 0 0 -110z"/>
<path d="M6008 1491 l-3 -111 48 0 c27 0 64 7 82 15 61 30 75 113 26 167 -24
27 -36 32 -89 36 l-61 4 -3 -111z m114 88 c29 -15 50 -73 42 -115 -8 -45 -46
-74 -95 -74 l-39 0 0 100 0 100 36 0 c19 0 44 -5 56 -11z"/>
<path d="M6315 1489 l0 -111 64 4 c57 4 67 8 92 36 70 79 10 182 -106 182
l-50 0 0 -111z m115 88 c30 -15 55 -76 46 -112 -11 -45 -50 -75 -96 -75 l-40
0 0 100 0 100 33 0 c17 0 43 -6 57 -13z"/>
<path d="M6620 1490 c0 -91 3 -110 15 -110 12 0 15 19 15 110 0 91 -3 110 -15
110 -12 0 -15 -19 -15 -110z"/>
<path d="M6785 1490 c0 -67 4 -110 10 -110 6 0 9 36 7 92 l-3 93 38 -40 c21
-22 59 -65 85 -95 l47 -55 3 113 c2 70 -1 112 -7 112 -6 0 -9 -34 -7 -87 l4
-88 -30 28 c-16 15 -51 55 -78 87 -27 33 -53 60 -59 60 -6 0 -10 -43 -10 -110z"/>
<path d="M7151 1586 c-52 -29 -69 -121 -31 -169 20 -25 79 -50 103 -42 7 2 24
6 38 9 24 5 27 12 31 51 2 36 0 45 -13 45 -12 0 -16 -10 -15 -42 l1 -43 -46
-3 c-41 -3 -49 0 -73 28 -57 68 -17 170 67 170 24 0 48 -7 59 -17 16 -14 18
-14 18 -1 0 9 -7 19 -16 22 -27 10 -98 6 -123 -8z"/>
<path d="M7570 1490 c0 -84 3 -110 13 -110 9 0 13 15 13 48 l-1 47 40 5 c29 4
43 11 52 30 26 51 -6 90 -74 90 l-43 0 0 -110z m94 78 c9 -12 16 -28 16 -35 0
-21 -31 -43 -61 -43 -28 0 -29 2 -29 43 0 24 3 47 7 50 14 15 53 6 67 -15z"/>
<path d="M7838 1490 c-33 -79 -42 -110 -32 -110 8 0 14 7 14 15 0 8 5 26 12
40 9 21 18 25 55 25 41 0 45 -3 56 -32 6 -18 10 -36 9 -40 -1 -5 7 -8 17 -8
18 0 18 2 -3 48 -13 26 -34 75 -47 110 -13 34 -26 62 -29 62 -3 0 -27 -49 -52
-110z m67 34 c8 -20 15 -38 15 -40 0 -2 -16 -4 -35 -4 -19 0 -35 2 -35 4 0 9
31 76 35 76 3 0 12 -16 20 -36z"/>
<path d="M8100 1490 c0 -91 3 -110 15 -110 12 0 15 18 15 105 0 103 0 105 23
105 26 0 57 -28 57 -52 0 -18 -28 -45 -53 -49 -15 -3 -11 -12 24 -54 22 -27
48 -52 57 -54 9 -2 0 15 -21 42 -21 24 -37 47 -37 51 0 4 10 16 21 25 27 21
28 69 3 88 -10 7 -37 13 -61 13 l-43 0 0 -110z"/>
<path d="M8340 1592 c0 -4 16 -6 36 -4 l35 4 -3 -106 c-2 -89 -1 -106 12 -106
13 0 14 17 12 106 l-3 106 35 -4 c20 -2 36 0 36 4 0 4 -36 8 -80 8 -44 0 -80
-4 -80 -8z"/>
<path d="M8590 1596 c0 -3 16 -33 36 -66 30 -51 35 -69 32 -106 -2 -34 0 -44
12 -44 12 0 14 10 12 45 -3 38 2 55 32 106 40 66 41 69 26 69 -5 0 -10 -5 -10
-10 0 -6 -13 -30 -28 -55 l-28 -45 -29 55 c-17 30 -36 55 -42 55 -7 0 -13 -2
-13 -4z"/>
<path d="M8850 1390 c0 -5 7 -10 15 -10 8 0 15 5 15 10 0 6 -7 10 -15 10 -8 0
-15 -4 -15 -10z"/>
<path d="M8930 1390 c0 -5 7 -10 15 -10 8 0 15 5 15 10 0 6 -7 10 -15 10 -8 0
-15 -4 -15 -10z"/>
<path d="M9020 1390 c0 -5 5 -10 10 -10 6 0 10 5 10 10 0 6 -4 10 -10 10 -5 0
-10 -4 -10 -10z"/>
</g>
</svg>
